<svg xmlns="http://www.w3.org/2000/svg" data-name="Layer 11" viewBox="0 0 32 32" id="checklist"><defs><linearGradient id="a" x1="4.881" x2="27.119" y1="5.881" y2="28.119" gradientUnits="userSpaceOnUse"><stop offset="0" stop-color="#fee140"></stop><stop offset=".278" stop-color="#fdb960"></stop><stop offset=".594" stop-color="#fb917f"></stop><stop offset=".846" stop-color="#fa7993"></stop><stop offset="1" stop-color="#fa709a"></stop></linearGradient></defs><path fill="url(#a)" d="M14.293,9.293L15.707,10.707l-3,3a1,1,0,0,1-1.4141,0l-2-2L10.707,10.293,12,11.5859ZM12,17.5859l-1.293-1.293L9.293,17.707l2,2a1,1,0,0,0,1.4141,0l3-3L14.293,15.293Zm0,6-1.293-1.293L9.293,23.707l2,2a1,1,0,0,0,1.4141,0l3-3L14.293,21.293ZM17,13h5V11H17v2Zm0,6h5V17H17v2Zm0,6h5V23H17v2ZM27,7V27a3.0088,3.0088,0,0,1-3,3H8a3.0088,3.0088,0,0,1-3-3V7A3.0088,3.0088,0,0,1,8,4h3.18A3.01,3.01,0,0,1,14,2h4a3.01,3.01,0,0,1,2.82,2H24A3.0088,3.0088,0,0,1,27,7ZM24,8a1.003,1.003,0,0,0-1-1H21a1.003,1.003,0,0,1-1,1H12a1.003,1.003,0,0,1-1-1H9A1.003,1.003,0,0,0,8,8V26a1.003,1.003,0,0,0,1,1H23a1.003,1.003,0,0,0,1-1V8Z"></path></svg>